<svg xmlns="http://www.w3.org/2000/svg" viewBox="0 0 64 64" fill="none" stroke="#f6b719" stroke-width="1.65" stroke-linecap="round" stroke-linejoin="round">
<defs><g id="icon-bee"><g stroke-width="1.45">
                <circle cx="12" cy="5.5" r="2.2"/>
                <path d="M10.5 3.8 8.8 1.9M13.5 3.8l1.7-1.9"/>
                <ellipse cx="12" cy="13.2" rx="4.1" ry="6.3"/>
                <path d="M8.3 10.4C4.7 6.7 1.7 8.7 3.2 12c1.1 2.5 3.6 2.6 5.2.9M15.7 10.4c3.6-3.7 6.6-1.7 5.1 1.6-1.1 2.5-3.6 2.6-5.2.9"/>
                <path d="M8.1 12.2h7.8M8.1 15h7.8M9.3 17.7h5.4"/>
                <path d="m8.2 12-3.1-2M8.2 15l-3 2.2M15.8 12l3.1-2M15.8 15l3 2.2"/>
            </g></g></defs>
<rect x="12" y="4" width="40" height="56" rx="7"/><path d="M24 10h16M27 54h10"/>
            <rect x="18" y="16" width="28" height="26" rx="4"/>
            <path d="M18 36l8-8 6 6 4-4 10 9"/>
            <use href="#icon-bee" x="25" y="16" width="20" height="20"/>
            <path d="M7 20v-5c0-4 3-7 7-7M57 20v-5c0-4-3-7-7-7"/>
</svg>
